<svg id="svg" version="1.1" xmlns="http://www.w3.org/2000/svg" xmlns:xlink="http://www.w3.org/1999/xlink" width="400" height="400" viewBox="0, 0, 400,400"><g id="svgg"><path id="path0" d="M187.879 27.604 C 187.019 27.688,184.291 27.947,181.818 28.180 C 101.075 35.775,34.323 101.443,24.850 182.600 C 12.360 289.610,97.053 382.742,204.301 379.931 C 312.053 377.107,391.637 280.507,373.960 173.998 C 371.792 160.934,363.944 135.049,361.372 132.477 C 361.094 132.198,339.123 142.227,338.125 143.088 C 337.965 143.226,338.465 144.826,339.235 146.645 C 372.861 226.040,329.213 319.917,246.178 346.784 C 138.486 381.631,32.035 288.453,52.006 176.823 C 67.775 88.685,159.869 32.741,244.468 59.910 C 245.915 60.374,247.191 60.662,247.304 60.549 C 247.584 60.269,255.705 37.061,255.713 36.521 C 255.731 35.133,233.468 30.005,220.137 28.326 C 215.506 27.743,191.885 27.215,187.879 27.604 M190.811 78.634 C 124.219 83.391,72.653 140.554,74.804 207.234 C 77.336 285.714,149.427 342.402,226.151 326.245 C 295.629 311.615,338.864 241.803,321.407 172.434 C 319.856 166.268,315.616 154.057,315.027 154.057 C 314.858 154.057,291.994 164.962,291.841 165.116 C 291.788 165.169,292.513 167.330,293.452 169.918 C 322.539 250.080,241.741 327.923,162.854 295.740 C 86.184 264.461,78.980 159.394,150.634 117.529 C 173.574 104.127,208.072 100.366,229.945 108.884 C 230.667 109.165,239.283 85.043,238.662 84.482 C 238.473 84.312,236.647 83.711,234.604 83.147 C 219.613 79.010,205.667 77.573,190.811 78.634 M191.439 129.813 C 134.254 136.998,106.314 202.695,140.927 248.584 C 179.359 299.536,260.258 280.650,272.998 217.752 C 275.388 205.950,273.201 182.778,269.101 176.464 C 268.640 175.753,245.441 186.845,245.676 187.664 C 251.153 206.732,247.600 223.273,235.191 236.473 C 205.218 268.358,151.955 247.404,151.921 203.715 C 151.897 172.637,181.297 149.193,210.951 156.642 C 214.107 157.435,213.182 158.935,217.987 145.222 C 222.872 131.282,222.749 132.812,219.062 131.831 C 211.592 129.845,198.689 128.902,191.439 129.813 " stroke="none" fill="#2c8cc4" fill-rule="evenodd"></path><path id="path1" d="M280.933 28.250 C 280.426 29.656,264.800 74.533,238.291 150.718 C 234.777 160.817,231.976 169.154,232.067 169.245 C 232.158 169.336,251.197 160.393,274.376 149.372 C 297.555 138.350,327.493 124.119,340.905 117.746 C 354.317 111.373,365.373 105.948,365.474 105.691 C 365.705 105.105,359.299 95.306,354.272 88.553 C 335.556 63.419,310.860 42.490,283.980 28.984 C 281.217 27.595,281.173 27.585,280.933 28.250 " stroke="none" fill="#e48434" fill-rule="evenodd"></path></g></svg>